# xmcd CD database file
#
# Track frame offsets:
#	150
#	24398
#	45955
#	66668
#	88027
#	109944
#	145912
#	163500
#	184290
#	203754
#	221562
#
# Disc length: 3231 seconds
#
# Revision: 0
# Processed by: cddbd v1.5.1PL0 Copyright (c) Steve Scherf et al.
# Submitted via: CDex 1.51
#
DISCID=9d0c9d0b
DTITLE=Orlando Canto - Sigo siendo un Van Van
DYEAR=2005
DGENRE=Salsa
TTITLE0=Cosas Raras
TTITLE1=Hoy Supe De Ti
TTITLE2=De Que Te Quejas
TTITLE3=La Gente Se Ha Vuelto Falsa
TTITLE4=P'a Que Te Haces
TTITLE5=Soy Un Van Van
TTITLE6=Delaja Ira
TTITLE7=Gente De Barrio
TTITLE8=Espiritual
TTITLE9=Metafora
TTITLE10=Tu Tranquilo
EXTD=YEAR: 2005
EXTT0=
EXTT1=
EXTT2=
EXTT3=
EXTT4=
EXTT5=
EXTT6=
EXTT7=
EXTT8=
EXTT9=
EXTT10=
PLAYORDER=
